PathFileType	4	(X/Y/Z)	c:/Users/goper/Files/vsCode/490R/osim_files/C15/C15_Fast_06.trc
DataRate	CameraRate	NumFrames	NumMarkers	Units                	OrigDataRate	OrigDataStartFrame	OrigNumFrames
250.00	250.00	8	36	mm	250.0	1083	2165
                Frame#	Time	LPSIS			LASIS			LTH1			LTH2			LTH3			LTH4			LLFE			LMFE			LSH1			LSH2			LSH3			LSH4			LLMAL			LMMAL			LCAL			LMTP5			LTOE			LMTP1			RPSIS			RASIS			RTH1			RTH2			RTH3			RTH4			RLFE			RMFE			RSH1			RSH2			RSH3			RSH4			RLMAL			RMMAL			RCAL			RMTP1			RTOE			RMTP5		
		X1	Y1	Z1	X2	Y2	Z2	X3	Y3	Z3	X4	Y4	Z4	X5	Y5	Z5	X6	Y6	Z6	X7	Y7	Z7	X8	Y8	Z8	X9	Y9	Z9	X10	Y10	Z10	X11	Y11	Z11	X12	Y12	Z12	X13	Y13	Z13	X14	Y14	Z14	X15	Y15	Z15	X16	Y16	Z16	X17	Y17	Z17	X18	Y18	Z18	X19	Y19	Z19	X20	Y20	Z20	X21	Y21	Z21	X22	Y22	Z22	X23	Y23	Z23	X24	Y24	Z24	X25	Y25	Z25	X26	Y26	Z26	X27	Y27	Z27	X28	Y28	Z28	X29	Y29	Z29	X30	Y30	Z30	X31	Y31	Z31	X32	Y32	Z32	X33	Y33	Z33	X34	Y34	Z34	X35	Y35	Z35	X36	Y36	Z36

1083	4.32800	-389.48541	993.03088	271.29889	-562.89215	970.18921	312.41449	-595.28735	586.32501	383.43549	-612.85095	544.53650	365.13544	-639.54547	611.50507	382.92099	-657.26398	570.53229	372.09369	-652.91724	487.28174	342.96854	-666.05017	477.74835	224.20117	-628.71136	367.72043	352.85529	-642.78815	324.50076	355.79657	-688.59595	382.39935	354.46078	-694.82562	338.80109	359.31320	-755.85193	83.49754	298.89221	-771.18817	118.87814	212.77501	-712.77405	43.80566	249.39307	-889.08997	79.23286	322.05200	-930.26422	131.21419	264.83344	-907.95807	88.74109	207.27795	-377.31177	998.99347	151.35487	-521.06775	971.84393	66.58408	-394.67999	611.94928	31.30292	-388.90976	567.02222	40.86553	-454.35410	600.59271	38.84809	-440.51620	555.13647	44.88955	-376.01443	472.02591	67.15889	-370.81653	460.12717	185.50113	-256.20605	403.04718	61.62571	-238.64291	363.24759	61.56347	-312.09338	370.39349	59.27032	-284.22769	337.44565	56.34315	-153.85963	112.70610	135.97110	-194.67987	128.91162	219.34898	-87.84429	99.44494	185.60097	-279.46243	38.10210	217.50635	-311.82324	53.46779	163.10710	-246.94722	31.08166	101.40572
1084	4.33200	-395.22806	992.99744	271.76459	-568.73566	969.77014	312.66333	-601.29034	586.19519	383.12164	-618.77893	544.54785	364.61642	-645.71942	611.31592	382.36548	-663.29828	570.42291	371.34634	-658.57758	487.06641	342.35538	-671.11456	477.56564	223.91722	-633.35022	367.36816	352.35910	-646.77924	324.32324	355.50674	-693.04962	381.93942	353.97543	-698.93158	338.19400	358.70721	-757.58820	83.30056	298.53033	-772.89856	117.79028	212.28473	-713.98462	44.32540	249.25009	-890.71887	76.73930	321.21121	-932.49939	128.01508	263.68994	-909.04932	86.01487	206.23218	-383.00641	998.71088	151.84982	-526.71362	971.36157	66.92106	-399.79593	611.49298	31.58773	-394.03003	566.55054	41.24923	-459.47968	600.08276	39.00535	-445.62726	554.63782	44.98993	-380.90433	471.60434	66.96488	-375.81116	459.52679	185.45923	-260.47485	403.67075	61.53772	-242.57861	364.10745	61.48643	-316.10120	370.50998	59.20005	-287.80521	337.84113	56.37404	-155.12134	114.58087	135.64342	-195.81470	130.45824	219.17516	-89.00661	101.80742	185.29930	-279.45163	38.15897	217.54578	-311.96698	53.49151	163.01079	-247.09538	31.14613	101.36942
1085	4.33600	-401.01007	992.99652	272.19806	-574.81659	969.54272	312.94113	-607.58160	585.97791	382.75659	-624.85449	543.39185	361.68390	-651.91425	611.29614	381.79468	-669.97284	570.35577	370.18411	-664.17712	486.88873	341.84692	-676.02954	477.38980	223.66640	-636.87634	367.81311	352.50873	-650.74640	324.18677	355.24341	-697.50183	381.39023	353.36807	-702.93347	337.57504	358.04968	-759.68280	83.22934	298.24857	-775.16962	116.95039	211.95500	-715.22864	45.15884	249.15181	-892.36414	74.22756	320.46280	-935.00006	124.85275	262.91132	-911.03760	82.63702	205.80580	-388.60458	998.54968	152.31122	-532.24011	970.85168	67.26185	-404.96722	610.99481	31.84436	-399.09848	566.05420	41.51411	-464.84238	599.62128	39.23339	-450.68442	554.09552	45.06149	-385.90625	471.01920	67.04119	-380.92801	459.02951	185.41660	-264.93112	404.26166	61.45044	-246.57477	364.97040	61.31454	-320.23111	370.61166	59.10481	-291.26453	338.32608	56.43433	-156.43465	116.28271	135.31175	-197.60271	131.31168	218.59642	-90.23299	104.34309	184.93590	-279.70346	38.26989	217.39713	-312.03290	53.58350	163.02742	-247.67152	30.83046	101.64563
1086	4.34000	-406.91156	993.13013	272.67108	-580.60052	969.31677	313.21625	-613.46411	585.99371	382.44662	-630.71936	544.53876	363.31482	-657.90576	611.17102	381.16769	-675.34271	570.33746	369.54523	-669.68311	486.71783	341.35245	-680.78198	477.18463	223.48293	-641.39758	367.52435	351.94766	-654.65955	323.96219	354.81625	-701.71118	380.88101	352.78998	-707.05505	337.16119	357.42316	-762.12994	83.29072	297.99994	-778.17114	116.10707	211.72191	-716.63660	46.16653	249.05681	-894.10242	71.51975	319.85638	-937.76917	121.49119	262.41315	-912.73926	79.63362	205.44098	-394.34775	998.31360	152.79089	-537.99194	970.31854	67.60811	-410.30893	610.51422	32.12618	-404.23087	565.55676	41.65144	-470.09116	599.12701	39.36351	-456.04990	553.55933	45.15650	-391.09311	470.59982	67.13850	-386.17047	458.44165	185.34447	-269.46896	404.99808	61.36757	-250.68324	365.85052	61.25720	-324.39816	370.74091	59.09277	-294.85034	338.85867	56.51185	-157.73178	118.08839	134.94156	-198.82027	133.06874	218.34271	-91.50968	106.97898	184.57788	-279.90475	38.40821	217.24701	-312.16895	53.66315	162.91608	-247.82906	30.91486	101.60505
1087	4.34400	-412.79428	993.28040	273.14923	-586.56793	969.27655	313.51761	-618.09412	586.98926	381.51938	-636.29633	543.52710	360.59845	-663.95294	611.21448	380.50806	-681.15729	570.41077	368.46558	-674.94379	486.65100	341.09854	-685.30103	476.91324	223.41304	-646.20789	367.22141	351.26804	-658.79010	323.74973	354.27658	-705.95496	380.63199	352.39648	-710.98969	336.82986	356.94492	-764.45056	83.22106	297.91412	-780.96954	115.73176	211.50914	-718.05823	47.31501	248.98964	-895.72321	68.61103	319.49063	-940.59320	117.83943	262.38782	-914.65546	76.53737	205.30969	-400.17197	998.16394	153.21834	-543.63824	969.82013	67.92038	-415.75363	610.01178	32.36845	-409.77084	565.00562	41.94719	-475.47159	598.49414	39.57484	-461.43674	553.03601	45.23074	-396.41458	470.22192	67.10754	-391.55460	457.79095	185.27812	-274.18079	405.72180	61.24074	-254.93521	366.80569	61.18048	-328.55493	370.87848	59.17190	-300.16620	339.45853	55.35379	-159.26369	119.92446	134.49809	-200.46347	134.40735	217.93069	-92.93037	109.71010	184.20949	-280.16510	38.54336	217.12184	-312.34384	53.73061	162.79623	-248.02617	30.99500	101.59580
1088	4.34800	-418.68448	993.46185	273.62128	-592.60663	969.27582	313.66916	-623.94019	587.17712	381.21472	-641.72192	543.83942	360.04614	-669.72247	611.44672	379.92538	-687.25867	570.56842	367.34561	-680.01013	486.74673	341.03229	-689.63165	476.66077	223.37784	-650.93884	367.05115	350.77444	-663.12836	323.64963	353.75201	-710.50134	380.33548	352.15759	-715.36169	336.70764	356.57166	-766.40796	83.11707	297.92822	-783.94849	114.98732	211.56946	-719.25562	48.35837	249.03943	-897.26288	65.56396	319.45990	-943.35358	113.83438	262.54364	-916.34772	73.31558	205.35178	-405.89307	998.02411	153.63258	-549.46368	969.36481	68.23349	-421.34927	609.44910	32.65992	-415.34299	564.49109	42.07609	-480.96317	597.90210	39.82147	-467.02264	552.50781	45.27739	-401.77707	469.65015	67.25681	-397.03766	457.15393	185.24881	-278.99173	406.52466	61.16911	-259.31158	367.86670	60.98589	-332.74939	370.45728	58.47243	-304.20444	340.05801	55.20531	-160.77536	121.84570	134.08177	-202.34102	135.78284	217.33179	-94.43671	112.58400	183.74889	-280.49411	38.66452	216.91734	-312.54370	53.82619	162.68169	-247.87790	31.47641	101.27195
1089	4.35200	-424.87927	993.91504	274.86850	-598.48242	969.38477	313.90115	-629.80011	587.50415	381.05634	-647.10181	545.37585	361.99823	-675.60742	611.71326	379.17133	-692.34906	570.83423	366.68192	-684.92346	487.05371	341.17239	-693.65271	476.40356	223.35057	-654.85889	366.80350	350.52466	-667.45007	323.82193	353.42188	-715.20135	380.33414	352.23190	-719.89081	336.66364	356.53711	-768.08124	82.90459	297.99066	-786.35870	114.36504	211.64282	-719.60602	49.69265	249.01505	-898.54871	62.44213	319.62756	-945.94635	109.70396	262.83524	-917.98029	69.98274	205.64357	-411.74475	997.88068	154.01027	-555.32355	968.88690	68.54828	-427.03958	608.92236	32.86735	-421.01733	563.90619	42.24003	-486.59494	597.29785	40.03622	-472.67422	551.96222	45.35271	-407.37463	469.29932	67.11362	-402.78043	456.49609	185.26273	-283.91766	407.33011	61.10851	-263.84457	368.85117	60.91388	-336.20612	370.76917	57.83625	-308.46457	340.65799	55.04486	-162.39874	123.90464	133.55496	-204.62155	136.73520	216.60684	-96.11588	115.56480	183.29208	-280.86288	38.78786	216.67137	-312.76440	53.87149	162.54088	-248.46848	31.22328	101.49411
1090	4.35600	-430.84830	994.21112	275.15970	-604.46869	969.79468	314.19409	-635.34094	588.06726	380.98425	-652.37628	545.80652	362.37985	-681.20770	612.22369	378.57489	-697.61627	571.23425	366.14948	-689.69366	487.49658	341.44333	-697.33356	476.22150	223.23776	-659.63379	367.17358	350.62381	-672.01459	324.22321	353.45715	-720.01306	380.50873	352.51752	-724.43610	336.79568	356.71240	-769.48737	82.59650	298.16113	-788.48944	113.72180	211.70695	-720.19543	50.65580	249.31850	-899.68500	59.47228	319.96100	-948.16443	105.71421	263.33517	-919.48657	66.80344	206.01416	-417.66846	997.76624	154.29054	-561.15570	968.46332	68.84261	-432.82260	608.33496	33.14032	-426.59222	563.46063	42.29757	-492.09906	596.75854	40.31873	-478.59247	551.38977	45.37833	-413.17361	468.60291	67.37482	-408.55276	455.84698	185.31755	-288.99100	408.14685	61.05069	-268.48099	369.93228	60.85529	-341.77640	371.00269	58.35683	-312.81787	341.38193	54.89796	-164.19498	125.97917	133.08524	-206.38838	138.65518	216.29062	-97.99924	118.67837	182.78189	-281.22440	38.87243	216.42484	-312.01187	53.14017	162.82085	-248.41383	31.69254	101.16429
